<?xml version="1.0" encoding="UTF-8" standalone="no"?><!DOCTYPE svg PUBLIC "-//W3C//DTD SVG 1.1//EN" "http://www.w3.org/Graphics/SVG/1.1/DTD/svg11.dtd"><svg width="100%" height="100%" viewBox="0 0 40 40" version="1.1" xmlns="http://www.w3.org/2000/svg" xmlns:xlink="http://www.w3.org/1999/xlink" xml:space="preserve" xmlns:serif="http://www.serif.com/" style="fill-rule:evenodd;clip-rule:evenodd;stroke-linejoin:round;stroke-miterlimit:2;"><path d="M0,20c-0,-10.972 9.028,-20 20,-20c10.972,-0 20,9.028 20,20c0,10.972 -9.028,20 -20,20c-10.972,0 -20,-9.028 -20,-20Zm18.75,-17.308c-1.675,0.51 -3.337,2.05 -4.718,4.638c-0.454,0.86 -0.845,1.753 -1.169,2.67l5.887,0l0,-7.308Zm-8.525,7.308c0.417,-1.328 0.952,-2.616 1.6,-3.847c0.432,-0.818 0.931,-1.598 1.492,-2.333c-3.097,1.284 -5.762,3.429 -7.68,6.18l4.588,0Zm-1.455,8.75c0.075,-2.192 0.345,-4.295 0.78,-6.25l-5.365,0c-0.932,1.963 -1.488,4.083 -1.64,6.25l6.225,0Zm3.348,-6.25c-0.492,2.05 -0.775,4.144 -0.846,6.25l7.478,0l0,-6.25l-6.632,0Zm9.132,0l0,6.25l7.475,0c-0.069,-2.106 -0.352,-4.2 -0.843,-6.25l-6.632,0Zm-9.975,8.75c0.069,2.106 0.352,4.2 0.842,6.25l6.633,0l0,-6.25l-7.475,0Zm9.975,0l0,6.25l6.633,0c0.467,-1.913 0.764,-4.02 0.845,-6.25l-7.478,0Zm-8.388,8.75c0.345,0.965 0.738,1.86 1.17,2.67c1.38,2.587 3.046,4.125 4.718,4.637l0,-7.307l-5.888,0Zm0.456,6.18c-0.562,-0.735 -1.061,-1.515 -1.493,-2.333c-0.648,-1.231 -1.183,-2.519 -1.6,-3.847l-4.587,0c1.917,2.751 4.582,4.896 7.679,6.18Zm-3.767,-8.68c-0.452,-2.055 -0.713,-4.147 -0.78,-6.25l-6.225,0c0.155,2.225 0.727,4.333 1.64,6.25l5.365,0Zm17.133,8.68c3.097,-1.284 5.762,-3.429 7.68,-6.18l-4.588,0c-0.417,1.328 -0.952,2.616 -1.6,3.848c-0.432,0.817 -0.931,1.597 -1.493,2.332Zm-5.432,-6.18l0,7.307c1.675,-0.51 3.338,-2.05 4.718,-4.637c0.432,-0.81 0.825,-1.705 1.169,-2.67l-5.887,0Zm9.2,-2.5l5.365,0c0.912,-1.917 1.485,-4.025 1.64,-6.25l-6.225,0c-0.067,2.103 -0.328,4.195 -0.78,6.25Zm7.005,-8.75c-0.152,-2.167 -0.708,-4.287 -1.64,-6.25l-5.365,0c0.435,1.955 0.705,4.058 0.78,6.25l6.225,0Zm-9.28,-12.598c0.617,1.16 1.155,2.451 1.6,3.848l4.587,0c-1.917,-2.751 -4.582,-4.896 -7.679,-6.18c0.544,0.71 1.044,1.495 1.492,2.333Zm-1.038,3.847c-0.324,-0.917 -0.715,-1.81 -1.17,-2.67c-1.38,-2.588 -3.042,-4.125 -4.717,-4.638l-0,7.308l5.887,0Z" style="fill:#4c1d95;fill-rule:nonzero;"/></svg>